<svg height="209pt" preserveAspectRatio="xMidYMid meet" viewBox="0 0 209 209" width="209pt" xmlns="http://www.w3.org/2000/svg"><g transform="matrix(.1 0 0 -.1 0 209)"><path d="m543 2053c9-2 23-2 30 0 6 3-1 5-18 5-16 0-22-2-12-5z"/><path d="m608 2053c6-2 18-2 25 0 6 3 1 5-13 5s-19-2-12-5z"/><path d="m1428 2053c7-3 16-2 19 1 4 3-2 6-13 5-11 0-14-3-6-6z"/><path d="m1508 2053c7-3 16-2 19 1 4 3-2 6-13 5-11 0-14-3-6-6z"/><path d="m498 2030c-156-39-287-182-305-329l-6-51h35c34 0 36 2 42 41 15 95 99 199 193 241 59 26 147 34 211 19 45-11 49-15 48-39-1-15-9-38-18-52-29-43-56-113-63-162l-7-48h34c34 0 35 2 51 58 52 184 232 290 408 239 129-38 214-132 243-269 6-24 11-28 42-28h36l-6 38c-35 196-178 331-371 349-106 10-207-24-297-99-27-21-48-35-48-29 0 5 19 24 43 42 23 18 46 36 50 39 5 4 1 10-8 14-9 3-13 2-10-4 9-15-8-12-60 11-54 24-178 34-237 19z"/><path d="m1360 2021c-30-10-64-22-74-26-14-6-17-5-12 3s2 10-9 6c-9-4-13-10-8-14 4-3 35-31 67-61 33-30 52-43 43-29-9 13-17 28-17 31 0 14 105 31 160 26 142-13 259-115 291-255 12-50 14-52 46-52 30 0 33 3 33 30 0 40-37 136-71 186-97 142-289 208-449 155z"/><path d="m1770 1935c13-14 26-25 28-25 3 0-5 11-18 25s-26 25-28 25c-3 0 5-11 18-25z"/><path d="m846 1884c-26-20-46-37-44-38s12-8 23-16c19-14 19-14 5 4-13 17-13 19 0 14 24-7 79-106 86-154 6-43 7-44 44-44h37l-8 48c-14 70-26 102-59 152-33 49-39 70-15 50 13-11 14-10 9 4-9 24-26 20-78-20z"/><path d="m1141 1898c-14-23-14-23 8-4 29 26 27 15-9-40-29-47-53-111-64-171-5-33-5-33 34-33 37 0 40 2 40 28 0 30 42 127 67 155 10 11 24 15 36 11 30-9 13 11-38 46-52 36-56 36-74 8z"/><path d="m1670 1876c0-2 8-10 18-17 15-13 16-12 3 4s-21 21-21 13z"/><path d="m354 1838-19-23 23 19c21 18 27 26 19 26-2 0-12-10-23-22z"/><path d="m1051 1674c0-11 3-14 6-6 3 7 2 16-1 19-3 4-6-2-5-13z"/><path d="m161 1664c0-11 3-14 6-6 3 7 2 16-1 19-3 4-6-2-5-13z"/><path d="m1006 1645c-3-8-1-15 4-15 6 0 10 7 10 15s-2 15-4 15-6-7-10-15z"/><path d="m265 1640c-3-5-1-10 4-10 6 0 11 5 11 10 0 6-2 10-4 10-3 0-8-4-11-10z"/><path d="m1098 1633c7-3 16-2 19 1 4 3-2 6-13 5-11 0-14-3-6-6z"/><path d="m1148 1633c7-3 16-2 19 1 4 3-2 6-13 5-11 0-14-3-6-6z"/><path d="m257 1572c10-6 13-118 16-483l2-474 3 483c2 453 1 482-15 482-13 0-14-3-6-8z"/><path d="m1008 1050 2-530-427-3-428-2 433-3 432-2v535c0 294-3 535-7 535-5 0-7-238-5-530z"/><path d="m1055 1570c-3-6 1-7 9-4 18 7 21 14 7 14-6 0-13-4-16-10z"/><path d="m1162 1108c-1-306 2-479 8-483 6-3 7 1 4 9-5 14 11 16 130 16h136v455 455h-35-35v-420-420h-100c-127 0-133 18-7 23l92 3-92 2-93 2-3 418-2 417z"/><path d="m1790 1569c0-5 5-7 10-4 6 3 10 8 10 11 0 2-4 4-10 4-5 0-10-5-10-11z"/><path d="m1828 1573c7-3 16-2 19 1 4 3-2 6-13 5-11 0-14-3-6-6z"/><path d="m180 1050v-510h408 409l1 510 2 510h-40-40v-475-475l-332 2-333 3v472 473h-37-38z"/><path d="m630 1105v-455h135c124 0 134-1 128-17-4-14-3-15 6-7 7 7 11 32 9 65l-3 54-95 1-95 1 95-6c52-3 91-9 85-12-8-5-130-5-182 0-10 1-13 91-13 416v415h-35-35z"/><path d="m1070 1050v-510h405 405v510 510h-35-35v-475-475h-334-335l2 475 2 475h-37-38z"/><path d="m1051 1534c0-11 3-14 6-6 3 7 2 16-1 19-3 4-6-2-5-13z"/><path d="m1055 1030c0-267 1-376 2-242 2 133 2 351 0 485-1 133-2 24-2-243z"/><path d="m1455 1140c0-206 1-291 2-188 2 104 2 272 0 375-1 104-2 19-2-187z"/><path d="m610 632c0-4 37-8 82-9 44-2 79-1 77 2-8 7-159 14-159 7z"/><path d="m830 630c0-5 5-10 11-10 5 0 7 5 4 10-3 6-8 10-11 10-2 0-4-4-4-10z"/><path d="m1195 630c-3-5 1-10 9-10 9 0 16 5 16 10 0 6-4 10-9 10-6 0-13-4-16-10z"/><path d="m1395 630c-3-5-1-10 4-10 6 0 11 5 11 10 0 6-2 10-4 10-3 0-8-4-11-10z"/><path d="m1424 628c-3-4 2-8 10-8s17 4 20 8c3 5-2 9-10 9s-17-4-20-9z"/><path d="m1288 623c12-2 32-2 45 0 12 2 2 4-23 4s-35-2-22-4z"/><path d="m1263 513c120-2 314-2 430 0 117 1 19 2-218 2-236 0-332-1-212-2z"/><path d="m155 325c-14-13-25-30-25-38 0-24 39-66 95-102 29-18 56-43 60-54 8-26-10-60-38-71-21-8-21-9-2-9 25 0 48 17 64 47 20 37-3 77-66 118-50 34-83 68-83 86 0 5 9 17 20 28s15 20 10 20c-6 0-22-11-35-25z"/><path d="m255 340c11-7 26-20 33-28 10-14 12-13 12 6 0 12-6 22-14 22s-23 3-33 6c-15 5-15 3 2-6z"/><path d="m440 332c-81-40-108-157-53-223 29-34 79-60 115-58 20 1 19 2-6 9-60 18-96 73-96 147 0 59 28 109 73 128 17 8 25 14 17 15-8 0-31-8-50-18z"/><path d="m576 337c17-8 39-25 48-38l16-23v30c0 18-5 31-12 31-7 1-29 4-48 8l-35 6z"/><path d="m705 343c11-3 23-10 27-17 4-6 8-63 8-126s-4-120-8-126c-4-7-16-14-27-17-11-2 12-5 50-5 43 0 60 3 45 7-22 6-25 13-28 64l-3 57h33c26 0 44-11 86-51 66-64 104-79 189-78 37 0 61 3 53 6s-18 11-22 17c-13 19-9 241 4 254 9 9 4 12-26 12-32 0-36-2-27-14 8-9 11-55 9-137l-3-124-27-3c-21-3-40 10-95 61l-68 65 28 26c26 24 34 57 21 91-9 22-57 45-91 44-28-1-28-1 5-10 33-10 52-39 52-80 0-31-44-69-80-69-30 0-30 1-31 53 0 28-2 62-5 74-2 14 2 23 14 26 9 3-10 5-43 5s-51-3-40-5z"/><path d="m1230 341c25-7 25-8 28-139 3-130 2-133-20-142-17-6-7-9 42-8 42 0 56 2 40 7-22 6-25 13-28 64l-3 57h43c110 0 158 109 68 155-38 20-48 15-20-10 31-28 27-88-6-114-30-23-70-28-76-8-2 6-4 42-3 80v67l-45-1c-35-1-39-3-20-8z"/><path d="m1500 341c25-7 25-8 28-139 3-130 2-133-20-142-17-6-5-9 47-8 39 0 59 3 45 5-14 3-28 10-32 17-10 15-10 106 0 106 4 0 5 34 4 76-3 56 0 79 10 85 8 5-11 8-47 8-41-1-52-3-35-8z"/><path d="m1632 339c60-23 56-117-7-146l-30-14 40 5c108 14 112 145 5 161-33 5-34 5-8-6z"/><path d="m1792 327c-22-24-28-52-14-74 4-6 37-34 72-60 58-43 65-52 65-83 0-27-6-37-25-47-16-8-19-13-9-13 32 0 69 40 69 74s-22 61-90 107c-64 43-76 76-38 103 16 12 18 16 7 16-9 0-25-10-37-23z"/><path d="m1886 341c12-5 29-20 38-33 10-14 16-17 16-8 0 25-14 38-45 44-25 5-26 5-9-3z"/><path d="m134 100c3-14 6-29 6-35 0-5 17-11 38-12l37-2-28 12c-16 7-35 23-43 37l-15 25z"/><path d="m617 85c-24-21-25-25-9-25 10 0 24 11 30 25 14 30 14 30-21 0z"/><path d="m1770 100c0-25 14-38 45-44 25-5 26-5 9 3-12 5-29 20-38 33-10 14-16 17-16 8z"/><path d="m558 53c7-3 16-2 19 1 4 3-2 6-13 5-11 0-14-3-6-6z"/></g></svg>