<svg id="b733216e-7a49-4049-94c6-c155a6d6a6ba" data-name="Layer 1" xmlns="http://www.w3.org/2000/svg" viewBox="0 0 179.47 20.72">
  <g id="a84d9618-c785-4040-8731-80c64bdf53a0" data-name="S7lN0N.tif">
    <g>
      <path d="M6.7,1.45H28.2c1.49.49,2.06,1.72,2,3.55,0,4.71,0,9.42,0,14.12A2.73,2.73,0,0,1,27.89,22c-7.17,0-14.33,0-21.49,0-1.53,0-2.5-.7-2.9-2.51V5.37Zm4.18,12.72h1V12.92h-1Zm13.93,0V12.92h-1v1.26ZM13.91,5.66h-1v1.2h1Zm2,0h-1V6.85h1Zm-6,8.52V12.91h-1v1.27Zm8,0V12.92h-1v1.26Zm2,0V12.92h-1v1.26Zm-8.95,3.58h1V16.58h-1Zm3,0V16.57h-1v1.21Zm-6,0h1V16.58h-1Zm1-8.45h-1v1.2h1ZM8,5.65v1.2h1V5.65Zm13.86,0h-1V6.85h1Zm2,0h-1V6.85h1ZM10.91,10.52V9.33h-1v1.19Zm2-1.2h-1v1.19h1Zm1,0v1.19h1V9.32Zm4,1.21V9.32h-1v1.21Zm1-1.22v1.2h1V9.31Zm7.92,1.21V9.32h-1v1.2Zm-5,7.26V16.57h-1v1.21Zm2,0V16.58h-1v1.19Z" transform="translate(-3.5 -1.32)"/>
      <path d="M3.5,19.49C3.9,21.3,4.87,22,6.4,22c7.16,0,14.32,0,21.49,0a2.73,2.73,0,0,0,2.34-2.86c0-4.7,0-9.41,0-14.12,0-1.83-.55-3.06-2-3.55C30,1,30.39,1.81,30.33,4c-.15,5.92,0,11.85-.06,17.78,0,.09-.13.25-.2.25H3.5Z" transform="translate(-3.5 -1.32)" style="fill: #fff"/>
      <path d="M6.7,1.45,3.5,5.37V1.45Z" transform="translate(-3.5 -1.32)" style="fill: #fff"/>
      <path d="M10.88,14.17V12.92h1v1.25Z" transform="translate(-3.5 -1.32)" style="fill: #fff"/>
      <path d="M24.81,14.18h-1V12.92h1Z" transform="translate(-3.5 -1.32)" style="fill: #fff"/>
      <path d="M13.91,5.66v1.2h-1V5.66Z" transform="translate(-3.5 -1.32)" style="fill: #fff"/>
      <path d="M15.89,5.66V6.85h-1V5.66Z" transform="translate(-3.5 -1.32)" style="fill: #fff"/>
      <path d="M9.89,14.18h-1V12.91h1Z" transform="translate(-3.5 -1.32)" style="fill: #fff"/>
      <path d="M17.86,14.18h-1V12.92h1Z" transform="translate(-3.5 -1.32)" style="fill: #fff"/>
      <path d="M19.84,14.18h-1V12.92h1Z" transform="translate(-3.5 -1.32)" style="fill: #fff"/>
      <path d="M10.89,17.76V16.58h1v1.18Z" transform="translate(-3.5 -1.32)" style="fill: #fff"/>
      <path d="M13.9,17.78h-1V16.57h1Z" transform="translate(-3.5 -1.32)" style="fill: #fff"/>
      <path d="M7.93,17.77V16.58h1v1.19Z" transform="translate(-3.5 -1.32)" style="fill: #fff"/>
      <path d="M8.93,9.32v1.2h-1V9.32Z" transform="translate(-3.5 -1.32)" style="fill: #fff"/>
      <path d="M8,5.65h1v1.2H8Z" transform="translate(-3.5 -1.32)" style="fill: #fff"/>
      <path d="M21.82,5.66V6.85h-1V5.66Z" transform="translate(-3.5 -1.32)" style="fill: #fff"/>
      <path d="M23.8,5.66V6.85h-1V5.66Z" transform="translate(-3.5 -1.32)" style="fill: #fff"/>
      <path d="M10.91,10.52h-1V9.33h1Z" transform="translate(-3.5 -1.32)" style="fill: #fff"/>
      <path d="M12.89,9.32v1.19h-1V9.32Z" transform="translate(-3.5 -1.32)" style="fill: #fff"/>
      <path d="M13.89,9.32h1v1.19h-1Z" transform="translate(-3.5 -1.32)" style="fill: #fff"/>
      <path d="M17.85,10.53h-1V9.32h1Z" transform="translate(-3.5 -1.32)" style="fill: #fff"/>
      <path d="M18.86,9.31h1v1.2h-1Z" transform="translate(-3.5 -1.32)" style="fill: #fff"/>
      <path d="M26.78,10.52h-1V9.32h1Z" transform="translate(-3.5 -1.32)" style="fill: #fff"/>
      <path d="M21.81,17.78h-1V16.57h1Z" transform="translate(-3.5 -1.32)" style="fill: #fff"/>
      <path d="M23.79,17.77h-1V16.58h1Z" transform="translate(-3.5 -1.32)" style="fill: #fff"/>
    </g>
  </g>
  <g>
    <path d="M67.37,18a4.06,4.06,0,0,1-1.68-.33,3.48,3.48,0,0,1-1.25-.92,4.13,4.13,0,0,1-.77-1.44,6.47,6.47,0,0,1-.26-1.88,6.23,6.23,0,0,1,.27-1.88,4.16,4.16,0,0,1,.78-1.44,3.47,3.47,0,0,1,1.24-.93,4.1,4.1,0,0,1,1.66-.32,3.53,3.53,0,0,1,2.06.56,3.29,3.29,0,0,1,1.17,1.46l-1.08.57a2.05,2.05,0,0,0-.79-1A2.44,2.44,0,0,0,67.36,10a2.71,2.71,0,0,0-1.06.2,2.12,2.12,0,0,0-.79.55,2.4,2.4,0,0,0-.48.84,3.38,3.38,0,0,0-.16,1.07v1.49A3.27,3.27,0,0,0,65,15.22a2.44,2.44,0,0,0,.48.85,2.08,2.08,0,0,0,.8.55,2.77,2.77,0,0,0,1.08.2,2.49,2.49,0,0,0,1.46-.41,2.83,2.83,0,0,0,.91-1.12l1,.66a3.44,3.44,0,0,1-1.22,1.46A3.66,3.66,0,0,1,67.37,18Z" transform="translate(-3.5 -1.32)" style="fill: #231f20"/>
    <path d="M77.33,18A5.49,5.49,0,0,1,75,17.52a5.17,5.17,0,0,1-1.69-1.25l.92-.79a4.38,4.38,0,0,0,1.37,1,4.05,4.05,0,0,0,1.79.36A3.44,3.44,0,0,0,79,16.49a1.24,1.24,0,0,0,.65-1.15,1.08,1.08,0,0,0-.13-.56.94.94,0,0,0-.34-.37,2,2,0,0,0-.49-.21l-.58-.13-1.37-.2c-.31,0-.64-.11-1-.19a3,3,0,0,1-1-.38,2.32,2.32,0,0,1-.73-.7,2,2,0,0,1-.3-1.15A2.4,2.4,0,0,1,74,10.31a2.52,2.52,0,0,1,.74-.82A3.46,3.46,0,0,1,75.89,9a6.18,6.18,0,0,1,1.4-.16,5.19,5.19,0,0,1,2.06.38,4.37,4.37,0,0,1,1.5,1l-.88.83a2.82,2.82,0,0,0-.94-.74,3.65,3.65,0,0,0-.77-.26,4.46,4.46,0,0,0-1-.1,3,3,0,0,0-1.58.35,1.15,1.15,0,0,0-.55,1,1.08,1.08,0,0,0,.13.56,1,1,0,0,0,.34.37,2,2,0,0,0,.5.21,5.78,5.78,0,0,0,.57.12l1.37.21c.32,0,.65.11,1,.18a3.29,3.29,0,0,1,1,.39,2.21,2.21,0,0,1,.73.7,2,2,0,0,1,.3,1.15,2.31,2.31,0,0,1-1,2A4.52,4.52,0,0,1,77.33,18Z" transform="translate(-3.5 -1.32)" style="fill: #231f20"/>
    <path d="M87.38,17.93a1.34,1.34,0,0,1-1-.28,1,1,0,0,1-.28-.73v-.31a1,1,0,0,1,.28-.73,1.84,1.84,0,0,1,2,0,1.05,1.05,0,0,1,.28.73v.31a1.05,1.05,0,0,1-.28.73A1.35,1.35,0,0,1,87.38,17.93Z" transform="translate(-3.5 -1.32)" style="fill: #231f20"/>
    <path d="M97.85,18a4.08,4.08,0,0,1-1.69-.33,3.44,3.44,0,0,1-1.24-.92,3.82,3.82,0,0,1-.77-1.44,6.14,6.14,0,0,1-.27-1.88,6.23,6.23,0,0,1,.27-1.88,4.52,4.52,0,0,1,.78-1.44,3.47,3.47,0,0,1,1.24-.93,4.13,4.13,0,0,1,1.66-.32,3.53,3.53,0,0,1,2.06.56,3.29,3.29,0,0,1,1.17,1.46l-1.08.57a2.05,2.05,0,0,0-.79-1A2.44,2.44,0,0,0,97.83,10a2.71,2.71,0,0,0-1.06.2,2.21,2.21,0,0,0-.79.55,2.4,2.4,0,0,0-.48.84,3.38,3.38,0,0,0-.16,1.07v1.49a3.27,3.27,0,0,0,.16,1.06,2.44,2.44,0,0,0,.48.85,2.16,2.16,0,0,0,.8.55,2.81,2.81,0,0,0,1.08.2,2.49,2.49,0,0,0,1.46-.41,2.75,2.75,0,0,0,.91-1.12l1,.66A3.49,3.49,0,0,1,100,17.41,3.68,3.68,0,0,1,97.85,18Z" transform="translate(-3.5 -1.32)" style="fill: #231f20"/>
    <path d="M111,17.78a1.42,1.42,0,0,1-1.14-.4,2.09,2.09,0,0,1-.42-1h-.08a2.4,2.4,0,0,1-.93,1.19,3,3,0,0,1-1.7.43,3.16,3.16,0,0,1-2.18-.71,2.44,2.44,0,0,1-.81-1.94,2.19,2.19,0,0,1,.88-1.88,4.9,4.9,0,0,1,2.87-.66h1.87v-.86a1.83,1.83,0,0,0-.54-1.44,2.28,2.28,0,0,0-1.55-.48,2.68,2.68,0,0,0-1.43.35,2.47,2.47,0,0,0-.9.94l-.92-.68a3.43,3.43,0,0,1,.46-.66,2.94,2.94,0,0,1,.71-.58,4.27,4.27,0,0,1,1-.39,4.48,4.48,0,0,1,1.2-.15,3.64,3.64,0,0,1,2.45.78,2.73,2.73,0,0,1,.9,2.17v4.82h1.22v1.17Zm-4-.93a3.23,3.23,0,0,0,1-.13,2.57,2.57,0,0,0,.75-.34,1.7,1.7,0,0,0,.5-.5,1.21,1.21,0,0,0,.18-.64V13.8h-1.87a3.58,3.58,0,0,0-1.77.34,1.07,1.07,0,0,0-.56,1v.36a1.18,1.18,0,0,0,.48,1A2.26,2.26,0,0,0,107,16.85Z" transform="translate(-3.5 -1.32)" style="fill: #231f20"/>
    <path d="M114.57,16.61h3.15v-6.4h-3.15V9.05h4.5v7.56h3v1.17h-7.45Zm3.83-9.49a1.14,1.14,0,0,1-.83-.25.84.84,0,0,1-.24-.62V6a.86.86,0,0,1,.24-.62,1.14,1.14,0,0,1,.83-.24,1.16,1.16,0,0,1,.83.24.9.9,0,0,1,.23.62v.27a.88.88,0,0,1-.23.62A1.16,1.16,0,0,1,118.4,7.12Z" transform="translate(-3.5 -1.32)" style="fill: #231f20"/>
    <path d="M124.24,16.61h2.55v-6.4h-2.55V9.05h3.91v2.2h.08a2.93,2.93,0,0,1,1-1.62,3,3,0,0,1,1.92-.58h1.22V10.4h-1.64a2.65,2.65,0,0,0-1.89.68,2.31,2.31,0,0,0-.72,1.77v3.76h3.39v1.17h-7.3Z" transform="translate(-3.5 -1.32)" style="fill: #231f20"/>
    <path d="M134.75,17.78V9.05h1.36v1.42h.06a3.74,3.74,0,0,1,.34-.62,2.24,2.24,0,0,1,.5-.52,2.7,2.7,0,0,1,.7-.35,3,3,0,0,1,.95-.14,2.88,2.88,0,0,1,2.2.87,3.44,3.44,0,0,1,.83,2.47v5.6h-1.35V12.42a2.6,2.6,0,0,0-.53-1.79,2,2,0,0,0-1.54-.59,3,3,0,0,0-.79.11,2.32,2.32,0,0,0-.7.3,1.66,1.66,0,0,0-.49.53,1.47,1.47,0,0,0-.18.74v6.06Z" transform="translate(-3.5 -1.32)" style="fill: #231f20"/>
    <path d="M148.33,17.93a1.37,1.37,0,0,1-1-.28,1,1,0,0,1-.27-.73v-.31a1,1,0,0,1,.27-.73,1.37,1.37,0,0,1,1-.28,1.32,1.32,0,0,1,1,.28,1,1,0,0,1,.28.73v.31a1,1,0,0,1-.28.73A1.32,1.32,0,0,1,148.33,17.93Z" transform="translate(-3.5 -1.32)" style="fill: #231f20"/>
    <path d="M158.79,18a4.06,4.06,0,0,1-1.68-.33,3.48,3.48,0,0,1-1.25-.92,4,4,0,0,1-.77-1.44,6.47,6.47,0,0,1-.26-1.88,6.23,6.23,0,0,1,.27-1.88,4.16,4.16,0,0,1,.78-1.44,3.47,3.47,0,0,1,1.24-.93,4.08,4.08,0,0,1,1.65-.32,3.54,3.54,0,0,1,2.07.56A3.29,3.29,0,0,1,162,10.86l-1.09.57a2,2,0,0,0-.78-1,2.45,2.45,0,0,0-1.37-.37,2.69,2.69,0,0,0-1.05.2,2.19,2.19,0,0,0-1.27,1.39,3.38,3.38,0,0,0-.16,1.07v1.49a3.27,3.27,0,0,0,.16,1.06,2.16,2.16,0,0,0,.48.85,2.12,2.12,0,0,0,.79.55,2.86,2.86,0,0,0,1.09.2,2.46,2.46,0,0,0,1.45-.41,2.77,2.77,0,0,0,.92-1.12l1,.66a3.42,3.42,0,0,1-1.21,1.46A3.68,3.68,0,0,1,158.79,18Z" transform="translate(-3.5 -1.32)" style="fill: #231f20"/>
    <path d="M168.64,18a4,4,0,0,1-1.65-.32,3.36,3.36,0,0,1-1.25-.92A4.18,4.18,0,0,1,165,15.3a6.16,6.16,0,0,1-.27-1.89,6.23,6.23,0,0,1,.27-1.88,4.18,4.18,0,0,1,.79-1.44A3.5,3.5,0,0,1,167,9.16a4.41,4.41,0,0,1,3.3,0,3.54,3.54,0,0,1,1.26.93,4.16,4.16,0,0,1,.78,1.44,6.23,6.23,0,0,1,.27,1.88,6.16,6.16,0,0,1-.27,1.89,4.16,4.16,0,0,1-.78,1.44,3.4,3.4,0,0,1-1.26.92A4,4,0,0,1,168.64,18Zm0-1.16a2.51,2.51,0,0,0,1.83-.68,2.83,2.83,0,0,0,.7-2.1V12.79a2.83,2.83,0,0,0-.7-2.1,2.51,2.51,0,0,0-1.83-.68,2.54,2.54,0,0,0-1.83.68,2.83,2.83,0,0,0-.69,2.1V14a2.83,2.83,0,0,0,.69,2.1A2.54,2.54,0,0,0,168.64,16.82Z" transform="translate(-3.5 -1.32)" style="fill: #231f20"/>
    <path d="M174.64,17.78V9.05h1.25v1H176a2.31,2.31,0,0,1,.57-.86,1.53,1.53,0,0,1,1.1-.36,1.55,1.55,0,0,1,1.14.38,1.75,1.75,0,0,1,.45,1h.05a2.65,2.65,0,0,1,.68-1,1.79,1.79,0,0,1,1.22-.39,1.43,1.43,0,0,1,1.43.75,5,5,0,0,1,.36,2.13v6.06h-1.25V11.94a3.55,3.55,0,0,0-.23-1.55.85.85,0,0,0-.83-.43,1.16,1.16,0,0,0-.88.35,1.44,1.44,0,0,0-.34,1.06v6.41h-1.26V11.94a3.74,3.74,0,0,0-.22-1.55.86.86,0,0,0-.83-.43,1.19,1.19,0,0,0-.88.35,1.4,1.4,0,0,0-.35,1.06v6.41Z" transform="translate(-3.5 -1.32)" style="fill: #231f20"/>
  </g>
</svg>
