<?xml version="1.0" encoding="utf-8"?>
<!-- Generator: Adobe Illustrator 25.2.1, SVG Export Plug-In . SVG Version: 6.00 Build 0)  -->
<svg version="1.1" id="Layer_1" xmlns="http://www.w3.org/2000/svg" xmlns:xlink="http://www.w3.org/1999/xlink" x="0px" y="0px"
	 viewBox="0 0 23 23" style="enable-background:new 0 0 23 23;" xml:space="preserve">
<g id="S7lN0N.tif">
	<g>
		<path d="M4.28,5.09c5.05,0,10.1,0,15.15,0c1.05,0.31,1.45,1.11,1.44,2.29c-0.02,3.03-0.01,6.07-0.01,9.1
			c0,0.97-0.78,1.84-1.65,1.84c-5.05,0-10.1-0.02-15.15,0.01c-1.07,0.01-1.76-0.45-2.04-1.62c0-3.03,0-6.07,0-9.1
			C2.78,6.78,3.53,5.94,4.28,5.09z M7.23,13.29c0.25,0,0.48,0,0.73,0c0-0.28,0-0.54,0-0.81c-0.25,0-0.49,0-0.73,0
			C7.23,12.76,7.23,13.02,7.23,13.29z M17.05,13.3c0-0.29,0-0.55,0-0.81c-0.25,0-0.48,0-0.7,0c0,0.28,0,0.54,0,0.81
			C16.59,13.3,16.81,13.3,17.05,13.3z M9.36,7.81c-0.25,0-0.49,0-0.73,0c0,0.27,0,0.52,0,0.77c0.25,0,0.48,0,0.73,0
			C9.36,8.32,9.36,8.07,9.36,7.81z M10.76,7.81c-0.26,0-0.5,0-0.73,0c0,0.26,0,0.51,0,0.76c0.25,0,0.49,0,0.73,0
			C10.76,8.31,10.76,8.07,10.76,7.81z M6.53,13.3c0-0.28,0-0.55,0-0.82c-0.24,0-0.46,0-0.69,0c0,0.28,0,0.55,0,0.82
			C6.08,13.3,6.29,13.3,6.53,13.3z M12.15,13.3c0-0.29,0-0.55,0-0.81c-0.24,0-0.47,0-0.69,0c0,0.28,0,0.54,0,0.81
			C11.69,13.3,11.92,13.3,12.15,13.3z M13.54,13.3c0-0.29,0-0.55,0-0.81c-0.24,0-0.47,0-0.69,0c0,0.28,0,0.54,0,0.81
			C13.09,13.3,13.31,13.3,13.54,13.3z M7.23,15.61c0.24,0,0.49,0,0.73,0c0-0.26,0-0.51,0-0.76c-0.25,0-0.49,0-0.73,0
			C7.23,15.1,7.23,15.35,7.23,15.61z M9.36,15.62c0-0.27,0-0.52,0-0.78c-0.25,0-0.48,0-0.72,0c0,0.27,0,0.52,0,0.78
			C8.88,15.62,9.11,15.62,9.36,15.62z M5.15,15.61c0.25,0,0.48,0,0.71,0c0-0.26,0-0.51,0-0.77c-0.24,0-0.46,0-0.71,0
			C5.15,15.11,5.15,15.35,5.15,15.61z M5.85,10.17c-0.25,0-0.48,0-0.7,0c0,0.27,0,0.52,0,0.77c0.25,0,0.47,0,0.7,0
			C5.85,10.68,5.85,10.43,5.85,10.17z M5.17,7.8c0,0.27,0,0.53,0,0.78c0.24,0,0.46,0,0.68,0c0-0.27,0-0.52,0-0.78
			C5.62,7.8,5.4,7.8,5.17,7.8z M14.94,7.81c-0.24,0-0.47,0-0.69,0c0,0.27,0,0.52,0,0.77c0.24,0,0.46,0,0.69,0
			C14.94,8.32,14.94,8.07,14.94,7.81z M16.34,7.81c-0.24,0-0.47,0-0.7,0c0,0.26,0,0.51,0,0.77c0.24,0,0.46,0,0.7,0
			C16.34,8.32,16.34,8.07,16.34,7.81z M7.25,10.94c0-0.27,0-0.52,0-0.77c-0.24,0-0.47,0-0.69,0c0,0.27,0,0.52,0,0.77
			C6.79,10.94,7.02,10.94,7.25,10.94z M8.64,10.17c-0.25,0-0.47,0-0.69,0c0,0.27,0,0.52,0,0.77c0.24,0,0.46,0,0.69,0
			C8.64,10.67,8.64,10.42,8.64,10.17z M9.35,10.16c0,0.27,0,0.52,0,0.77c0.24,0,0.47,0,0.69,0c0-0.27,0-0.52,0-0.77
			C9.8,10.16,9.58,10.16,9.35,10.16z M12.14,10.94c0-0.27,0-0.53,0-0.78c-0.24,0-0.46,0-0.68,0c0,0.27,0,0.52,0,0.78
			C11.69,10.94,11.91,10.94,12.14,10.94z M12.86,10.16c0,0.27,0,0.53,0,0.78c0.24,0,0.46,0,0.68,0c0-0.27,0-0.52,0-0.78
			C13.31,10.16,13.09,10.16,12.86,10.16z M18.44,10.94c0-0.26,0-0.52,0-0.78c-0.23,0-0.45,0-0.68,0c0,0.26,0,0.52,0,0.78
			C17.98,10.94,18.2,10.94,18.44,10.94z M14.93,15.62c0-0.27,0-0.53,0-0.78c-0.24,0-0.46,0-0.68,0c0,0.27,0,0.52,0,0.78
			C14.48,15.62,14.7,15.62,14.93,15.62z M16.33,15.62c0-0.27,0-0.52,0-0.77c-0.24,0-0.47,0-0.69,0c0,0.27,0,0.52,0,0.77
			C15.88,15.62,16.1,15.62,16.33,15.62z"/>
		<path style="fill:#FFFFFF;" d="M2.02,16.72c0.28,1.17,0.97,1.62,2.04,1.62c5.05-0.03,10.1-0.01,15.15-0.01
			c0.87,0,1.65-0.87,1.65-1.84c0-3.03-0.02-6.07,0.01-9.1c0.01-1.18-0.39-1.98-1.44-2.29c1.25-0.31,1.55,0.23,1.51,1.64
			c-0.11,3.82-0.04,7.64-0.04,11.46c0,0.06-0.09,0.16-0.14,0.16c-6.24,0.01-12.48,0.01-18.73,0.01C2.02,17.82,2.02,17.27,2.02,16.72
			z"/>
		<path style="fill:#FFFFFF;" d="M4.28,5.09C3.53,5.94,2.78,6.78,2.02,7.62c0-0.84,0-1.69,0-2.53C2.78,5.09,3.53,5.09,4.28,5.09z"/>
		<path style="fill:#FFFFFF;" d="M7.23,13.29c0-0.27,0-0.53,0-0.81c0.24,0,0.48,0,0.73,0c0,0.27,0,0.53,0,0.81
			C7.71,13.29,7.48,13.29,7.23,13.29z"/>
		<path style="fill:#FFFFFF;" d="M17.05,13.3c-0.23,0-0.45,0-0.7,0c0-0.27,0-0.53,0-0.81c0.22,0,0.45,0,0.7,0
			C17.05,12.75,17.05,13.01,17.05,13.3z"/>
		<path style="fill:#FFFFFF;" d="M9.36,7.81c0,0.26,0,0.51,0,0.77c-0.24,0-0.48,0-0.73,0c0-0.25,0-0.51,0-0.77
			C8.87,7.81,9.11,7.81,9.36,7.81z"/>
		<path style="fill:#FFFFFF;" d="M10.76,7.81c0,0.26,0,0.5,0,0.76c-0.24,0-0.48,0-0.73,0c0-0.25,0-0.5,0-0.76
			C10.26,7.81,10.5,7.81,10.76,7.81z"/>
		<path style="fill:#FFFFFF;" d="M6.53,13.3c-0.24,0-0.45,0-0.69,0c0-0.27,0-0.54,0-0.82c0.23,0,0.45,0,0.69,0
			C6.53,12.75,6.53,13.02,6.53,13.3z"/>
		<path style="fill:#FFFFFF;" d="M12.15,13.3c-0.23,0-0.45,0-0.69,0c0-0.27,0-0.53,0-0.81c0.22,0,0.45,0,0.69,0
			C12.15,12.75,12.15,13.01,12.15,13.3z"/>
		<path style="fill:#FFFFFF;" d="M13.54,13.3c-0.23,0-0.45,0-0.69,0c0-0.27,0-0.53,0-0.81c0.22,0,0.45,0,0.69,0
			C13.54,12.75,13.54,13.01,13.54,13.3z"/>
		<path style="fill:#FFFFFF;" d="M7.23,15.61c0-0.26,0-0.51,0-0.76c0.25,0,0.48,0,0.73,0c0,0.26,0,0.5,0,0.76
			C7.72,15.61,7.47,15.61,7.23,15.61z"/>
		<path style="fill:#FFFFFF;" d="M9.36,15.62c-0.25,0-0.48,0-0.72,0c0-0.26,0-0.51,0-0.78c0.24,0,0.47,0,0.72,0
			C9.36,15.1,9.36,15.35,9.36,15.62z"/>
		<path style="fill:#FFFFFF;" d="M5.15,15.61c0-0.26,0-0.51,0-0.77c0.24,0,0.47,0,0.71,0c0,0.26,0,0.5,0,0.77
			C5.62,15.61,5.39,15.61,5.15,15.61z"/>
		<path style="fill:#FFFFFF;" d="M5.85,10.17c0,0.26,0,0.51,0,0.77c-0.23,0-0.45,0-0.7,0c0-0.25,0-0.51,0-0.77
			C5.38,10.17,5.61,10.17,5.85,10.17z"/>
		<path style="fill:#FFFFFF;" d="M5.17,7.8c0.23,0,0.45,0,0.68,0c0,0.26,0,0.51,0,0.78c-0.22,0-0.45,0-0.68,0
			C5.17,8.33,5.17,8.07,5.17,7.8z"/>
		<path style="fill:#FFFFFF;" d="M14.94,7.81c0,0.26,0,0.51,0,0.77c-0.23,0-0.45,0-0.69,0c0-0.25,0-0.51,0-0.77
			C14.47,7.81,14.7,7.81,14.94,7.81z"/>
		<path style="fill:#FFFFFF;" d="M16.34,7.81c0,0.26,0,0.51,0,0.77c-0.23,0-0.46,0-0.7,0c0-0.25,0-0.5,0-0.77
			C15.87,7.81,16.09,7.81,16.34,7.81z"/>
		<path style="fill:#FFFFFF;" d="M7.25,10.94c-0.23,0-0.45,0-0.69,0c0-0.25,0-0.5,0-0.77c0.22,0,0.45,0,0.69,0
			C7.25,10.42,7.25,10.66,7.25,10.94z"/>
		<path style="fill:#FFFFFF;" d="M8.64,10.17c0,0.26,0,0.51,0,0.77c-0.23,0-0.45,0-0.69,0c0-0.25,0-0.5,0-0.77
			C8.18,10.17,8.4,10.17,8.64,10.17z"/>
		<path style="fill:#FFFFFF;" d="M9.35,10.16c0.23,0,0.45,0,0.69,0c0,0.25,0,0.5,0,0.77c-0.22,0-0.45,0-0.69,0
			C9.35,10.69,9.35,10.44,9.35,10.16z"/>
		<path style="fill:#FFFFFF;" d="M12.14,10.94c-0.23,0-0.45,0-0.68,0c0-0.26,0-0.51,0-0.78c0.22,0,0.45,0,0.68,0
			C12.14,10.42,12.14,10.67,12.14,10.94z"/>
		<path style="fill:#FFFFFF;" d="M12.86,10.16c0.23,0,0.45,0,0.68,0c0,0.26,0,0.51,0,0.78c-0.22,0-0.45,0-0.68,0
			C12.86,10.69,12.86,10.43,12.86,10.16z"/>
		<path style="fill:#FFFFFF;" d="M18.44,10.94c-0.23,0-0.45,0-0.68,0c0-0.26,0-0.51,0-0.78c0.23,0,0.45,0,0.68,0
			C18.44,10.43,18.44,10.68,18.44,10.94z"/>
		<path style="fill:#FFFFFF;" d="M14.93,15.62c-0.23,0-0.45,0-0.68,0c0-0.26,0-0.51,0-0.78c0.22,0,0.45,0,0.68,0
			C14.93,15.09,14.93,15.35,14.93,15.62z"/>
		<path style="fill:#FFFFFF;" d="M16.33,15.62c-0.23,0-0.45,0-0.69,0c0-0.25,0-0.5,0-0.77c0.22,0,0.45,0,0.69,0
			C16.33,15.09,16.33,15.34,16.33,15.62z"/>
	</g>
</g>
</svg>
