<?xml version="1.0" encoding="utf-8"?>
<!-- Generator: Adobe Illustrator 25.2.1, SVG Export Plug-In . SVG Version: 6.00 Build 0)  -->
<svg version="1.1" id="Layer_1" xmlns="http://www.w3.org/2000/svg" xmlns:xlink="http://www.w3.org/1999/xlink" x="0px" y="0px"
	 viewBox="0 0 100 100" style="enable-background:new 0 0 100 100;" xml:space="preserve">
<g id="S7lN0N.tif">
	<g>
		<path d="M14.29,24.83c25.17,0,50.34,0,75.51,0c5.25,1.25,7.23,4.45,7.19,9.2c-0.12,12.19-0.04,24.39-0.04,36.59
			c0,3.91-3.9,7.41-8.24,7.41c-25.17,0-50.34-0.06-75.5,0.05c-5.36,0.02-8.76-1.81-10.18-6.5c0-12.2,0-24.39,0-36.59
			C6.78,31.6,10.53,28.21,14.29,24.83z M28.98,57.78c1.25,0,2.41,0,3.64,0c0-1.12,0-2.17,0-3.24c-1.23,0-2.43,0-3.64,0
			C28.98,55.64,28.98,56.68,28.98,57.78z M77.89,57.81c0-1.16,0-2.21,0-3.25c-1.22,0-2.38,0-3.48,0c0,1.13,0,2.18,0,3.25
			C75.63,57.81,76.74,57.81,77.89,57.81z M39.59,35.72c-1.26,0-2.44,0-3.63,0c0,1.07,0,2.09,0,3.11c1.24,0,2.41,0,3.63,0
			C39.59,37.78,39.59,36.78,39.59,35.72z M46.56,35.74c-1.28,0-2.47,0-3.66,0c0,1.06,0,2.06,0,3.07c1.25,0,2.44,0,3.66,0
			C46.56,37.77,46.56,36.79,46.56,35.74z M25.48,57.82c0-1.14,0-2.22,0-3.3c-1.18,0-2.29,0-3.42,0c0,1.12,0,2.2,0,3.3
			C23.22,57.82,24.31,57.82,25.48,57.82z M53.48,57.81c0-1.16,0-2.21,0-3.26c-1.19,0-2.32,0-3.43,0c0,1.13,0,2.18,0,3.26
			C51.22,57.81,52.32,57.81,53.48,57.81z M60.43,57.81c0-1.16,0-2.21,0-3.26c-1.19,0-2.32,0-3.43,0c0,1.13,0,2.18,0,3.26
			C58.17,57.81,59.27,57.81,60.43,57.81z M28.98,67.09c1.22,0,2.43,0,3.66,0c0-1.05,0-2.04,0-3.07c-1.24,0-2.44,0-3.66,0
			C28.98,65.06,28.98,66.04,28.98,67.09z M39.57,67.14c0-1.09,0-2.11,0-3.13c-1.24,0-2.41,0-3.6,0c0,1.07,0,2.09,0,3.13
			C37.18,67.14,38.33,67.14,39.57,67.14z M18.59,67.11c1.24,0,2.38,0,3.53,0c0-1.06,0-2.06,0-3.08c-1.18,0-2.32,0-3.53,0
			C18.59,65.08,18.59,66.07,18.59,67.11z M22.12,45.22c-1.23,0-2.37,0-3.49,0c0,1.07,0,2.08,0,3.1c1.23,0,2.34,0,3.49,0
			C22.12,47.27,22.12,46.27,22.12,45.22z M18.69,35.7c0,1.1,0,2.12,0,3.13c1.18,0,2.29,0,3.41,0c0-1.07,0-2.09,0-3.13
			C20.94,35.7,19.85,35.7,18.69,35.7z M67.4,35.73c-1.21,0-2.32,0-3.44,0c0,1.07,0,2.09,0,3.1c1.18,0,2.29,0,3.44,0
			C67.4,37.78,67.4,36.78,67.4,35.73z M74.36,35.74c-1.21,0-2.34,0-3.47,0c0,1.06,0,2.06,0,3.08c1.18,0,2.31,0,3.47,0
			C74.36,37.77,74.36,36.8,74.36,35.74z M29.06,48.32c0-1.1,0-2.1,0-3.09c-1.2,0-2.33,0-3.42,0c0,1.07,0,2.07,0,3.09
			C26.8,48.32,27.91,48.32,29.06,48.32z M36.02,45.22c-1.22,0-2.33,0-3.42,0c0,1.08,0,2.1,0,3.09c1.19,0,2.3,0,3.42,0
			C36.02,47.25,36.02,46.25,36.02,45.22z M39.53,45.2c0,1.1,0,2.1,0,3.09c1.2,0,2.33,0,3.42,0c0-1.07,0-2.07,0-3.09
			C41.78,45.2,40.67,45.2,39.53,45.2z M53.46,48.34c0-1.1,0-2.12,0-3.13c-1.18,0-2.29,0-3.4,0c0,1.07,0,2.09,0,3.13
			C51.22,48.34,52.3,48.34,53.46,48.34z M57.01,45.18c0,1.1,0,2.12,0,3.13c1.18,0,2.29,0,3.4,0c0-1.07,0-2.09,0-3.13
			C59.25,45.18,58.17,45.18,57.01,45.18z M84.82,48.34c0-1.04,0-2.08,0-3.13c-1.16,0-2.27,0-3.4,0c0,1.06,0,2.08,0,3.13
			C82.57,48.34,83.66,48.34,84.82,48.34z M67.36,67.14c0-1.1,0-2.12,0-3.13c-1.18,0-2.29,0-3.4,0c0,1.07,0,2.09,0,3.13
			C65.12,67.14,66.2,67.14,67.36,67.14z M74.32,67.12c0-1.1,0-2.1,0-3.09c-1.19,0-2.33,0-3.42,0c0,1.07,0,2.07,0,3.09
			C72.07,67.12,73.18,67.12,74.32,67.12z"/>
		<path style="fill:#FFFFFF;" d="M3.02,71.58c1.42,4.69,4.83,6.52,10.18,6.5c25.17-0.11,50.34-0.05,75.5-0.05
			c4.34,0,8.24-3.5,8.24-7.41c0-12.2-0.08-24.39,0.04-36.59c0.05-4.76-1.93-7.95-7.19-9.2c6.25-1.23,7.72,0.94,7.51,6.61
			c-0.55,15.34-0.18,30.71-0.22,46.07c0,0.23-0.47,0.65-0.72,0.65c-31.09,0.03-62.17,0.03-93.35,0.03
			C3.02,75.98,3.02,73.78,3.02,71.58z"/>
		<path style="fill:#FFFFFF;" d="M14.29,24.83c-3.76,3.39-7.51,6.78-11.27,10.16c0-3.39,0-6.78,0-10.16
			C6.78,24.83,10.53,24.83,14.29,24.83z"/>
		<path style="fill:#FFFFFF;" d="M28.98,57.78c0-1.1,0-2.14,0-3.24c1.22,0,2.41,0,3.64,0c0,1.07,0,2.12,0,3.24
			C31.39,57.78,30.23,57.78,28.98,57.78z"/>
		<path style="fill:#FFFFFF;" d="M77.89,57.81c-1.15,0-2.26,0-3.48,0c0-1.07,0-2.12,0-3.25c1.1,0,2.25,0,3.48,0
			C77.89,55.6,77.89,56.65,77.89,57.81z"/>
		<path style="fill:#FFFFFF;" d="M39.59,35.72c0,1.06,0,2.06,0,3.11c-1.21,0-2.39,0-3.63,0c0-1.02,0-2.04,0-3.11
			C37.16,35.72,38.33,35.72,39.59,35.72z"/>
		<path style="fill:#FFFFFF;" d="M46.56,35.74c0,1.05,0,2.03,0,3.07c-1.22,0-2.41,0-3.66,0c0-1.01,0-2.01,0-3.07
			C44.09,35.74,45.28,35.74,46.56,35.74z"/>
		<path style="fill:#FFFFFF;" d="M25.48,57.82c-1.18,0-2.26,0-3.42,0c0-1.1,0-2.18,0-3.3c1.13,0,2.24,0,3.42,0
			C25.48,55.6,25.48,56.68,25.48,57.82z"/>
		<path style="fill:#FFFFFF;" d="M53.48,57.81c-1.15,0-2.26,0-3.43,0c0-1.08,0-2.14,0-3.26c1.11,0,2.24,0,3.43,0
			C53.48,55.6,53.48,56.65,53.48,57.81z"/>
		<path style="fill:#FFFFFF;" d="M60.43,57.81c-1.15,0-2.26,0-3.43,0c0-1.08,0-2.14,0-3.26c1.11,0,2.24,0,3.43,0
			C60.43,55.6,60.43,56.65,60.43,57.81z"/>
		<path style="fill:#FFFFFF;" d="M28.98,67.09c0-1.05,0-2.03,0-3.07c1.22,0,2.42,0,3.66,0c0,1.03,0,2.03,0,3.07
			C31.41,67.09,30.2,67.09,28.98,67.09z"/>
		<path style="fill:#FFFFFF;" d="M39.57,67.14c-1.24,0-2.38,0-3.6,0c0-1.04,0-2.06,0-3.13c1.19,0,2.36,0,3.6,0
			C39.57,65.03,39.57,66.05,39.57,67.14z"/>
		<path style="fill:#FFFFFF;" d="M18.59,67.11c0-1.04,0-2.03,0-3.08c1.22,0,2.35,0,3.53,0c0,1.03,0,2.03,0,3.08
			C20.96,67.11,19.82,67.11,18.59,67.11z"/>
		<path style="fill:#FFFFFF;" d="M22.12,45.22c0,1.06,0,2.06,0,3.1c-1.15,0-2.26,0-3.49,0c0-1.02,0-2.03,0-3.1
			C19.75,45.22,20.89,45.22,22.12,45.22z"/>
		<path style="fill:#FFFFFF;" d="M18.69,35.7c1.16,0,2.25,0,3.41,0c0,1.04,0,2.06,0,3.13c-1.11,0-2.22,0-3.41,0
			C18.69,37.82,18.69,36.8,18.69,35.7z"/>
		<path style="fill:#FFFFFF;" d="M67.4,35.73c0,1.05,0,2.05,0,3.1c-1.15,0-2.26,0-3.44,0c0-1.01,0-2.03,0-3.1
			C65.08,35.73,66.18,35.73,67.4,35.73z"/>
		<path style="fill:#FFFFFF;" d="M74.36,35.74c0,1.06,0,2.04,0,3.08c-1.16,0-2.29,0-3.47,0c0-1.02,0-2.02,0-3.08
			C72.02,35.74,73.15,35.74,74.36,35.74z"/>
		<path style="fill:#FFFFFF;" d="M29.06,48.32c-1.14,0-2.25,0-3.42,0c0-1.02,0-2.01,0-3.09c1.1,0,2.23,0,3.42,0
			C29.06,46.22,29.06,47.22,29.06,48.32z"/>
		<path style="fill:#FFFFFF;" d="M36.02,45.22c0,1.03,0,2.03,0,3.09c-1.13,0-2.23,0-3.42,0c0-0.99,0-2.01,0-3.09
			C33.69,45.22,34.8,45.22,36.02,45.22z"/>
		<path style="fill:#FFFFFF;" d="M39.53,45.2c1.14,0,2.25,0,3.42,0c0,1.02,0,2.01,0,3.09c-1.1,0-2.23,0-3.42,0
			C39.53,47.31,39.53,46.31,39.53,45.2z"/>
		<path style="fill:#FFFFFF;" d="M53.46,48.34c-1.16,0-2.25,0-3.4,0c0-1.04,0-2.06,0-3.13c1.11,0,2.22,0,3.4,0
			C53.46,46.22,53.46,47.24,53.46,48.34z"/>
		<path style="fill:#FFFFFF;" d="M57.01,45.18c1.16,0,2.25,0,3.4,0c0,1.04,0,2.06,0,3.13c-1.11,0-2.22,0-3.4,0
			C57.01,47.3,57.01,46.28,57.01,45.18z"/>
		<path style="fill:#FFFFFF;" d="M84.82,48.34c-1.17,0-2.25,0-3.4,0c0-1.05,0-2.07,0-3.13c1.14,0,2.25,0,3.4,0
			C84.82,46.26,84.82,47.3,84.82,48.34z"/>
		<path style="fill:#FFFFFF;" d="M67.36,67.14c-1.16,0-2.25,0-3.4,0c0-1.04,0-2.06,0-3.13c1.11,0,2.22,0,3.4,0
			C67.36,65.02,67.36,66.04,67.36,67.14z"/>
		<path style="fill:#FFFFFF;" d="M74.32,67.12c-1.14,0-2.25,0-3.42,0c0-1.02,0-2.01,0-3.09c1.1,0,2.23,0,3.42,0
			C74.32,65.02,74.32,66.02,74.32,67.12z"/>
	</g>
</g>
</svg>
